<?xml version="1.0" standalone="no"?><!DOCTYPE svg PUBLIC "-//W3C//DTD SVG 1.1//EN" "http://www.w3.org/Graphics/SVG/1.1/DTD/svg11.dtd"><svg t="1495594739329" class="icon" style="" viewBox="0 0 1024 1024" version="1.1" xmlns="http://www.w3.org/2000/svg" p-id="12243" xmlns:xlink="http://www.w3.org/1999/xlink" width="200" height="200"><defs><style type="text/css"></style></defs><path d="M179.540607 396.906705c-63.262836 0-114.543779 51.27992-114.543779 114.543779 0 63.263859 51.280944 114.545826 114.543779 114.545826 63.263859 0 114.544803-51.280944 114.544803-114.545826C294.08541 448.186625 242.804467 396.906705 179.540607 396.906705zM179.540607 577.596997c-36.560684 0-66.146513-29.583782-66.146513-66.146513 0-36.561707 29.585829-66.146513 66.146513-66.146513 36.561707 0 66.146513 29.585829 66.146513 66.146513C245.68712 548.012192 216.102315 577.596997 179.540607 577.596997z" p-id="12244"></path><path d="M512.237919 396.906705c-63.262836 0-114.543779 51.27992-114.543779 114.543779 0 63.263859 51.280944 114.545826 114.543779 114.545826 63.264882 0 114.546849-51.280944 114.546849-114.545826C626.784768 448.186625 575.502801 396.906705 512.237919 396.906705zM512.237919 577.596997c-36.560684 0-66.144466-29.583782-66.144466-66.146513 0-36.561707 29.584806-66.146513 66.144466-66.146513 36.561707 0 66.147536 29.585829 66.147536 66.146513C578.385455 548.012192 548.799626 577.596997 512.237919 577.596997z" p-id="12245"></path><path d="M844.9383 396.906705c-63.263859 0-114.545826 51.27992-114.545826 114.544803 0 63.262836 51.280944 114.544803 114.545826 114.544803 63.262836 0 114.543779-51.280944 114.543779-114.544803C959.482079 448.186625 908.202159 396.906705 844.9383 396.906705zM844.9383 577.596997c-36.561707 0-66.146513-29.583782-66.146513-66.145489 0-36.561707 29.584806-66.147536 66.146513-66.147536s66.145489 29.585829 66.145489 66.147536C911.083789 548.012192 881.500007 577.596997 844.9383 577.596997z" p-id="12246"></path></svg>