<?xml version="1.0" standalone="no"?><!DOCTYPE svg PUBLIC "-//W3C//DTD SVG 1.1//EN" "http://www.w3.org/Graphics/SVG/1.1/DTD/svg11.dtd"><svg t="1489474589342" class="icon" style="" viewBox="0 0 1024 1024" version="1.1" xmlns="http://www.w3.org/2000/svg" p-id="7053" xmlns:xlink="http://www.w3.org/1999/xlink" width="200" height="200"><defs><style type="text/css"></style></defs><path d="M238.216533 729.088c-13.090133-12.680533-46.933333-14.318933-60.023467-1.621333l0 242.3296c13.090133 12.3392 46.933333 10.734933 60.023467-1.5872l106.990933-83.0976c12.9536-12.714667 12.9536-33.314133 0-46.0288L238.216533 729.088zM306.602667 864.4608l-55.739733 44.066133c-6.1952 5.819733-22.203733 6.570667-28.398933 0.733867L222.464 785.066667c6.1952-6.007467 22.203733 7.662933 28.398933 13.6704l55.739733 56.814933C312.712533 861.559467 312.712533 858.436267 306.602667 864.4608zM999.0144 45.7216c-4.061867 0-7.714133 1.1776-11.076267 2.833067L26.743467 325.1712c-14.984533 8.482133-23.927467 23.1424-25.787733 38.8096L0 364.2368l0.802133 0.768c-1.006933 10.2912 1.024 20.974933 6.724267 30.634667l242.244267 189.098667 580.6592-373.230933L338.9952 622.3872c-20.053333 19.592533-20.053333 51.387733 0 70.946133l224.733867 248.3712c20.053333 19.575467 52.599467 19.575467 72.669867 0L1016.0128 87.978667C1020.8768 83.5072 1024 77.2608 1024 70.212267 1024 56.695467 1012.7872 45.7216 999.0144 45.7216zM954.197333 138.6496l-337.408 738.816c-31.6928 41.6256-22.272 27.682133-51.899733 1.3312l-159.197867-176.571733c-33.826133-32.955733-29.166933-43.042133-6.5536-60.7744L904.721067 157.508267 240.5376 521.642667 72.5504 399.189333c-37.9904-33.553067-11.5712-33.348267 13.687467-47.650133l843.3152-247.466667C974.813867 91.938133 965.700267 119.022933 954.197333 138.6496z" p-id="7054"></path></svg>